<svg width="18" height="19" viewBox="0 0 18 19" fill="none" xmlns="http://www.w3.org/2000/svg">
<mask id="mask0_401_797" style="mask-type:luminance" maskUnits="userSpaceOnUse" x="0" y="0" width="19" height="19">
<rect x="0.00012207" y="0.250488" width="18" height="18" fill="white"/>
</mask>
<g mask="url(#mask0_401_797)">
<path fill-rule="evenodd" clip-rule="evenodd" d="M16.3542 7.78161H15.7501V7.75049H9.00012V10.7505H13.2387C12.6204 12.4969 10.9587 13.7505 9.00012 13.7505C6.515 13.7505 4.50012 11.7356 4.50012 9.25049C4.50012 6.76536 6.515 4.75049 9.00012 4.75049C10.1472 4.75049 11.1909 5.18324 11.9855 5.89011L14.1069 3.76874C12.7674 2.52036 10.9756 1.75049 9.00012 1.75049C4.85825 1.75049 1.50012 5.10861 1.50012 9.25049C1.50012 13.3924 4.85825 16.7505 9.00012 16.7505C13.142 16.7505 16.5001 13.3924 16.5001 9.25049C16.5001 8.74761 16.4484 8.25674 16.3542 7.78161V7.78161Z" fill="#FFC107"/>
<path fill-rule="evenodd" clip-rule="evenodd" d="M2.36487 5.75961L4.82899 7.56674C5.49574 5.91599 7.11049 4.75049 9.00012 4.75049C10.1472 4.75049 11.1909 5.18324 11.9855 5.89011L14.1069 3.76874C12.7674 2.52036 10.9756 1.75049 9.00012 1.75049C6.11937 1.75049 3.62112 3.37686 2.36487 5.75961V5.75961Z" fill="#FF3D00"/>
<path fill-rule="evenodd" clip-rule="evenodd" d="M9.00012 16.7505C10.9374 16.7505 12.6976 16.0091 14.0285 14.8035L11.7072 12.8393C10.9542 13.4096 10.0182 13.7505 9.00012 13.7505C7.04937 13.7505 5.39299 12.5066 4.76899 10.7708L2.32324 12.6551C3.56449 15.084 6.08524 16.7505 9.00012 16.7505V16.7505Z" fill="#4CAF50"/>
<path fill-rule="evenodd" clip-rule="evenodd" d="M16.3542 7.78161H15.7501V7.75049H9.00012V10.7505H13.2387C12.9417 11.5894 12.4021 12.3127 11.7061 12.8396C11.7065 12.8392 11.7069 12.8392 11.7072 12.8389L14.0285 14.8031C13.8642 14.9524 16.5001 13.0005 16.5001 9.25049C16.5001 8.74761 16.4484 8.25674 16.3542 7.78161V7.78161Z" fill="#1976D2"/>
</g>
</svg>
