<svg width="24" height="24" viewBox="0 0 24 24" fill="none" xmlns="http://www.w3.org/2000/svg">
<g clip-path="url(#clip0_339_1769)">
<path d="M11 22C4.935 22 0 17.065 0 11C0 4.935 4.935 0 11 0C17.065 0 22 4.935 22 11C22 17.065 17.065 22 11 22ZM11 2C6.038 2 2 6.037 2 11C2 15.963 6.038 20 11 20C15.962 20 20 15.963 20 11C20 6.037 15.962 2 11 2Z" fill="#F5F5F5"/>
<path d="M23 24C22.8687 24.0002 22.7386 23.9744 22.6173 23.9241C22.4959 23.8738 22.3857 23.8 22.293 23.707L17.498 18.912C17.3105 18.7244 17.2052 18.47 17.2053 18.2047C17.2054 17.9394 17.3109 17.685 17.4985 17.4975C17.6861 17.31 17.9406 17.2047 18.2058 17.2048C18.4711 17.2049 18.7255 17.3104 18.913 17.498L23.707 22.293C23.8473 22.4327 23.9429 22.6109 23.9818 22.805C24.0206 22.9991 24.0009 23.2004 23.9252 23.3833C23.8494 23.5662 23.721 23.7225 23.5563 23.8323C23.3916 23.9421 23.198 24.0005 23 24Z" fill="#F5F5F5"/>
</g>
<defs>
<clipPath id="clip0_339_1769">
<rect width="24" height="24" fill="white"/>
</clipPath>
</defs>
</svg>
