<svg width="239" height="100" viewBox="0 0 239 100" fill="none" xmlns="http://www.w3.org/2000/svg">
<rect width="100" height="100" rx="20" fill="url(#paint0_linear_406_1085)"/>
<path d="M36.65 47.19L37.055 51.285L36.83 50.925C37.52 49.515 38.495 48.42 39.755 47.64C41.045 46.83 42.515 46.425 44.165 46.425C45.725 46.425 47.03 46.785 48.08 47.505C49.13 48.225 49.775 49.245 50.015 50.565L49.79 50.745C50.54 49.395 51.545 48.345 52.805 47.595C54.065 46.815 55.385 46.425 56.765 46.425C58.625 46.425 60.095 46.95 61.175 48C62.255 49.02 62.81 50.37 62.84 52.05V66H58.34V53.76C58.31 52.8 58.085 52.005 57.665 51.375C57.275 50.745 56.555 50.4 55.505 50.34C54.425 50.34 53.465 50.67 52.625 51.33C51.815 51.99 51.17 52.845 50.69 53.895C50.24 54.945 50 56.07 49.97 57.27V66H45.425V53.76C45.395 52.8 45.155 52.005 44.705 51.375C44.285 50.745 43.55 50.4 42.5 50.34C41.45 50.34 40.505 50.67 39.665 51.33C38.855 51.99 38.225 52.86 37.775 53.94C37.325 54.99 37.1 56.115 37.1 57.315V66H32.555V47.19H36.65ZM62.7525 47.19H67.2975V66H62.7525V47.19ZM62.5275 40.44C62.5275 39.75 62.7975 39.165 63.3375 38.685C63.9075 38.205 64.5225 37.965 65.1825 37.965C65.8425 37.965 66.4425 38.205 66.9825 38.685C67.5225 39.165 67.7925 39.75 67.7925 40.44C67.7925 41.19 67.5225 41.79 66.9825 42.24C66.4425 42.69 65.8425 42.915 65.1825 42.915C64.5225 42.915 63.9075 42.69 63.3375 42.24C62.7975 41.79 62.5275 41.19 62.5275 40.44Z" fill="white"/>
<circle cx="65.05" cy="40.05" r="3.05" fill="#FF008D"/>
<path d="M118.12 47.952L118.444 51.228L118.264 50.94C118.816 49.812 119.596 48.936 120.604 48.312C121.636 47.664 122.812 47.34 124.132 47.34C125.38 47.34 126.424 47.628 127.264 48.204C128.104 48.78 128.62 49.596 128.812 50.652L128.632 50.796C129.232 49.716 130.036 48.876 131.044 48.276C132.052 47.652 133.108 47.34 134.212 47.34C135.7 47.34 136.876 47.76 137.74 48.6C138.604 49.416 139.048 50.496 139.072 51.84V63H135.472V53.208C135.448 52.44 135.268 51.804 134.932 51.3C134.62 50.796 134.044 50.52 133.204 50.472C132.34 50.472 131.572 50.736 130.9 51.264C130.252 51.792 129.736 52.476 129.352 53.316C128.992 54.156 128.8 55.056 128.776 56.016V63H125.14V53.208C125.116 52.44 124.924 51.804 124.564 51.3C124.228 50.796 123.64 50.52 122.8 50.472C121.96 50.472 121.204 50.736 120.532 51.264C119.884 51.792 119.38 52.488 119.02 53.352C118.66 54.192 118.48 55.092 118.48 56.052V63H114.844V47.952H118.12ZM144.762 47.952H148.398V63H144.762V47.952ZM144.582 42.552C144.582 42 144.798 41.532 145.23 41.148C145.686 40.764 146.178 40.572 146.706 40.572C147.234 40.572 147.714 40.764 148.146 41.148C148.578 41.532 148.794 42 148.794 42.552C148.794 43.152 148.578 43.632 148.146 43.992C147.714 44.352 147.234 44.532 146.706 44.532C146.178 44.532 145.686 44.352 145.23 43.992C144.798 43.632 144.582 43.152 144.582 42.552ZM157.354 47.952L157.678 51.444L157.534 50.94C158.014 49.86 158.782 48.996 159.838 48.348C160.918 47.7 162.178 47.376 163.618 47.376C165.034 47.376 166.198 47.796 167.11 48.636C168.022 49.452 168.49 50.532 168.514 51.876V63H164.878V53.136C164.854 52.368 164.626 51.744 164.194 51.264C163.762 50.76 163.09 50.496 162.178 50.472C160.906 50.472 159.838 51 158.974 52.056C158.134 53.112 157.714 54.468 157.714 56.124V63H154.078V47.952H157.354ZM172.927 55.332C172.927 53.82 173.287 52.464 174.007 51.264C174.727 50.04 175.723 49.08 176.995 48.384C178.267 47.688 179.719 47.34 181.351 47.34C183.007 47.34 184.447 47.688 185.671 48.384C186.919 49.08 187.879 50.04 188.551 51.264C189.247 52.464 189.595 53.82 189.595 55.332C189.595 56.844 189.247 58.212 188.551 59.436C187.855 60.636 186.883 61.596 185.635 62.316C184.411 63.012 182.959 63.36 181.279 63.36C179.695 63.36 178.267 63.036 176.995 62.388C175.747 61.74 174.751 60.816 174.007 59.616C173.287 58.392 172.927 56.964 172.927 55.332ZM176.599 55.368C176.599 56.304 176.803 57.156 177.211 57.924C177.619 58.668 178.171 59.268 178.867 59.724C179.587 60.156 180.379 60.372 181.243 60.372C182.611 60.372 183.727 59.892 184.591 58.932C185.479 57.972 185.923 56.784 185.923 55.368C185.923 53.952 185.479 52.764 184.591 51.804C183.727 50.82 182.611 50.328 181.243 50.328C180.355 50.328 179.563 50.556 178.867 51.012C178.171 51.468 177.619 52.08 177.211 52.848C176.803 53.616 176.599 54.456 176.599 55.368ZM195.421 41.364H199.093V47.988H203.125V50.832H199.093V63H195.421V50.832H192.757V47.988H195.421V41.364ZM214.185 63.36C212.457 63.36 210.969 63.024 209.721 62.352C208.473 61.656 207.513 60.708 206.841 59.508C206.169 58.284 205.833 56.904 205.833 55.368C205.833 53.88 206.205 52.536 206.949 51.336C207.717 50.112 208.737 49.14 210.009 48.42C211.281 47.7 212.697 47.34 214.257 47.34C216.273 47.34 217.941 47.928 219.261 49.104C220.605 50.256 221.505 51.888 221.961 54L209.685 58.248L208.821 56.16L218.685 52.56L217.929 53.064C217.641 52.296 217.185 51.636 216.561 51.084C215.937 50.508 215.085 50.22 214.005 50.22C212.661 50.22 211.557 50.688 210.693 51.624C209.853 52.536 209.433 53.712 209.433 55.152C209.433 56.688 209.889 57.924 210.801 58.86C211.713 59.796 212.865 60.264 214.257 60.264C214.905 60.264 215.529 60.156 216.129 59.94C216.729 59.7 217.293 59.388 217.821 59.004L219.477 61.704C218.709 62.208 217.857 62.616 216.921 62.928C216.009 63.216 215.097 63.36 214.185 63.36ZM230.399 63.324C229.295 63.324 228.239 63.132 227.231 62.748C226.223 62.34 225.371 61.764 224.675 61.02L226.223 58.932C226.847 59.532 227.495 59.988 228.167 60.3C228.863 60.612 229.511 60.768 230.111 60.768C230.807 60.768 231.419 60.636 231.947 60.372C232.475 60.084 232.739 59.616 232.739 58.968C232.739 58.44 232.559 58.032 232.199 57.744C231.863 57.456 231.431 57.216 230.903 57.024C230.375 56.832 229.811 56.652 229.211 56.484C227.963 56.076 227.003 55.5 226.331 54.756C225.683 53.988 225.359 53.088 225.359 52.056C225.359 51.264 225.551 50.52 225.935 49.824C226.343 49.104 226.955 48.528 227.771 48.096C228.587 47.64 229.595 47.412 230.795 47.412C231.851 47.412 232.799 47.544 233.639 47.808C234.479 48.048 235.259 48.468 235.979 49.068L234.575 51.264C234.143 50.832 233.627 50.508 233.027 50.292C232.451 50.052 231.923 49.92 231.443 49.896C230.795 49.896 230.231 50.052 229.751 50.364C229.271 50.652 229.031 51.048 229.031 51.552C229.031 52.056 229.199 52.464 229.535 52.776C229.871 53.064 230.303 53.304 230.831 53.496C231.383 53.664 231.935 53.844 232.487 54.036C233.591 54.396 234.503 54.888 235.223 55.512C235.967 56.136 236.339 57.048 236.339 58.248C236.339 59.16 236.123 60 235.691 60.768C235.259 61.536 234.599 62.16 233.711 62.64C232.847 63.096 231.743 63.324 230.399 63.324Z" fill="#FEFBFF"/>
<defs>
<linearGradient id="paint0_linear_406_1085" x1="90.5" y1="7.49999" x2="1.49131e-06" y2="114" gradientUnits="userSpaceOnUse">
<stop offset="0.443164" stop-color="#0058CB"/>
<stop offset="1" stop-color="#001EFF"/>
</linearGradient>
</defs>
</svg>
