<svg width="100" height="100" viewBox="0 0 100 100" fill="none" xmlns="http://www.w3.org/2000/svg">
<rect width="100" height="100" rx="20" fill="url(#paint0_linear_7_4493)"/>
<path d="M36.65 47.19L37.055 51.285L36.83 50.925C37.52 49.515 38.495 48.42 39.755 47.64C41.045 46.83 42.515 46.425 44.165 46.425C45.725 46.425 47.03 46.785 48.08 47.505C49.13 48.225 49.775 49.245 50.015 50.565L49.79 50.745C50.54 49.395 51.545 48.345 52.805 47.595C54.065 46.815 55.385 46.425 56.765 46.425C58.625 46.425 60.095 46.95 61.175 48C62.255 49.02 62.81 50.37 62.84 52.05V66H58.34V53.76C58.31 52.8 58.085 52.005 57.665 51.375C57.275 50.745 56.555 50.4 55.505 50.34C54.425 50.34 53.465 50.67 52.625 51.33C51.815 51.99 51.17 52.845 50.69 53.895C50.24 54.945 50 56.07 49.97 57.27V66H45.425V53.76C45.395 52.8 45.155 52.005 44.705 51.375C44.285 50.745 43.55 50.4 42.5 50.34C41.45 50.34 40.505 50.67 39.665 51.33C38.855 51.99 38.225 52.86 37.775 53.94C37.325 54.99 37.1 56.115 37.1 57.315V66H32.555V47.19H36.65ZM62.7525 47.19H67.2975V66H62.7525V47.19ZM62.5275 40.44C62.5275 39.75 62.7975 39.165 63.3375 38.685C63.9075 38.205 64.5225 37.965 65.1825 37.965C65.8425 37.965 66.4425 38.205 66.9825 38.685C67.5225 39.165 67.7925 39.75 67.7925 40.44C67.7925 41.19 67.5225 41.79 66.9825 42.24C66.4425 42.69 65.8425 42.915 65.1825 42.915C64.5225 42.915 63.9075 42.69 63.3375 42.24C62.7975 41.79 62.5275 41.19 62.5275 40.44Z" fill="white"/>
<circle cx="65.05" cy="40.05" r="3.05" fill="#FF008D"/>
<defs>
<linearGradient id="paint0_linear_7_4493" x1="90.5" y1="7.49999" x2="1.49131e-06" y2="114" gradientUnits="userSpaceOnUse">
<stop offset="0.443164" stop-color="#0058CB"/>
<stop offset="1" stop-color="#001EFF"/>
</linearGradient>
</defs>
</svg>
